<svg xmlns="http://www.w3.org/2000/svg" viewBox="0 0 220.25 51.06"><defs><style>.cls-1{fill:#fff;}</style></defs><title>Element 1</title><g id="Ebene_2" data-name="Ebene 2"><g id="Ebene_1-2" data-name="Ebene 1"><path class="cls-1" d="M50.08,18.32V37.59H42.93V18.32H40.12V12.23h2.81V3.57h7.14v8.67H55v6.09Z"/><path class="cls-1" d="M78.18,12.23h7.14V37.59H78.18V34.31a9.09,9.09,0,0,1-7.79,4.1c-7.79,0-12.94-6.09-12.94-13.53S62.55,11.42,70,11.42a9.18,9.18,0,0,1,8.14,4.1ZM64.83,24.88a7,7,0,1,0,14.05,0,7,7,0,1,0-14.05,0Z"/><path class="cls-1" d="M111.21,20a8.24,8.24,0,0,0-5.86-2.22,6.81,6.81,0,0,0-7.14,7.14,7.06,7.06,0,0,0,7.38,7.2,8.27,8.27,0,0,0,5.62-2.22v7a14.48,14.48,0,0,1-6.56,1.58,14.31,14.31,0,0,1-9.78-3.69,13,13,0,0,1-4-9.72,13.07,13.07,0,0,1,13.53-13.58,15.13,15.13,0,0,1,6.85,1.52Z"/><path class="cls-1" d="M123.74,3.57V21.49l9.49-9.25h9.25L130.6,23.36l12.82,14.23h-9.49l-9.43-10.83-.76.7V37.59H116.6v-34Z"/><path class="cls-1" d="M153.73,3.41V37.59h-7.14V3.41Z"/><path class="cls-1" d="M184,15a13.36,13.36,0,0,1,4.28,10,13.32,13.32,0,0,1-4.28,9.9c-2.17,2-5.45,3.57-10.25,3.57s-8.08-1.58-10.25-3.57a13.32,13.32,0,0,1-4.27-9.9,13.36,13.36,0,0,1,4.27-10c2.17-2,5.45-3.57,10.25-3.57S181.83,13,184,15Zm-3.1,10a7.14,7.14,0,1,0-7.14,7.14A7.07,7.07,0,0,0,180.9,24.94Z"/><path class="cls-1" d="M213.11,12.23h7.14V36.42c0,3.86-.35,7.91-3.51,11.07-1.76,1.76-4.8,3.57-10,3.57-4.92,0-7.85-1.46-9.49-2.93a14.05,14.05,0,0,1-4.1-7.55h7.73a6.1,6.1,0,0,0,1.76,3A6.31,6.31,0,0,0,207,45a6,6,0,0,0,4.33-1.58c1.64-1.58,1.82-3.57,1.82-5.62V34.19a8.88,8.88,0,0,1-7.79,4.22A12,12,0,0,1,196.53,35a13.93,13.93,0,0,1-4-10.07,14.1,14.1,0,0,1,3.92-10.07,12.41,12.41,0,0,1,8.72-3.4,8.92,8.92,0,0,1,8,4.1ZM202.16,19.5a7,7,0,0,0-2.28,5.39,7,7,0,0,0,1.87,5,6.94,6.94,0,0,0,5.15,2.22,7.18,7.18,0,0,0,4.74-1.76,7.47,7.47,0,0,0,2.28-5.45,7.22,7.22,0,0,0-2-5.09,6.5,6.5,0,0,0-5-2A6.87,6.87,0,0,0,202.16,19.5Z"/><polygon class="cls-1" points="10.47 15.55 10.47 22.37 27.51 22.37 27.51 31.1 10.47 31.1 10.47 37.92 34.33 37.92 34.33 31.1 34.33 22.37 34.33 15.55 10.47 15.55"/><rect class="cls-1" x="17.62" y="-7.15" width="6.82" height="21.12" transform="translate(24.44 -17.62) rotate(90)"/><rect class="cls-1" width="6.82" height="6.82"/><rect class="cls-1" y="15.55" width="6.82" height="6.82"/><rect class="cls-1" y="31.1" width="6.82" height="6.82"/></g></g></svg>